<?xml version="1.0" encoding="UTF-8"?>
<svg id="Calque_2" data-name="Calque 2" xmlns="http://www.w3.org/2000/svg" viewBox="0 0 104.34 70.38">
  <defs>
    <style>
      .cls-1 {
        fill: #f4da8f;
      }

      .cls-1, .cls-2, .cls-3, .cls-4 {
        stroke-width: 0px;
      }

      .cls-2 {
        fill: #829d19;
      }

      .cls-3 {
        fill: #a4c61e;
      }

      .cls-4 {
        fill: #d0d600;
      }
    </style>
  </defs>
  <g id="Calque_1-2" data-name="Calque 1">
    <path class="cls-4" d="m38.06,30.17c-2.03,0-3.94-1.09-4.98-2.84l-.95-1.63c-1.12-1.88-1.04-4.28.2-6.14.5-.75,1.1-1.34,1.8-1.75L62.76.79c.87-.51,1.86-.79,2.88-.79,2.05,0,3.96,1.08,4.99,2.82l.95,1.64c1.63,2.76.73,6.31-2,7.93l-28.61,17.02c-.77.45-1.6.7-2.45.74l-.46.02Z"/>
    <path class="cls-3" d="m48.9,48.75c-2.1,0-3.98-1.06-5.04-2.84l-.95-1.63c-1.13-1.9-1.06-4.31.18-6.17.47-.71,1.08-1.28,1.82-1.71L94.28,7.29c.86-.5,1.86-.77,2.87-.77,2.07,0,3.99,1.08,5.03,2.83l.95,1.64c.8,1.35,1.02,2.91.62,4.41-.39,1.48-1.32,2.72-2.63,3.48l-49.36,29.1c-.78.45-1.61.71-2.46.75h-.41Z"/>
    <path class="cls-2" d="m59.6,67.3c-2.02,0-3.92-1.08-4.95-2.81l-.95-1.64c-1.13-1.9-1.05-4.31.18-6.17.5-.75,1.1-1.34,1.8-1.75l39-23.04c.87-.5,1.87-.77,2.89-.77,2.05,0,3.97,1.09,5.01,2.84l.96,1.64c1.62,2.74.71,6.28-2.03,7.89l-38.98,23.04c-.78.45-1.61.71-2.46.75l-.47.02Z"/>
    <path class="cls-1" d="m20.36,70.34c-.04-3.55-.99-7.02-2.81-10.15s-4.36-5.68-7.42-7.47l13.91-24.19c.18.47.4.93.66,1.37l1.01,1.75c1.75,2.93,4.84,4.81,8.15,5.05l1.27,2.18c-1.48,3.06-1.38,6.63.35,9.6l1.02,1.75c1.76,2.95,4.79,4.79,8.15,5.04l1.27,2.19c-1.48,3.06-1.38,6.63.35,9.6l1.02,1.75c.32.54.69,1.04,1.09,1.5l-28,.04Z"/>
    <path class="cls-3" d="m7.88,56.65c2.37,1.4,4.34,3.38,5.76,5.82s2.16,5.13,2.2,7.89l-15.83.02,7.88-13.73Z"/>
  </g>
</svg>