<?xml version="1.0" encoding="UTF-8"?>
<svg id="Calque_1" data-name="Calque 1" xmlns="http://www.w3.org/2000/svg" viewBox="0 0 498.38 136.63">
  <defs>
    <style>
      .cls-1, .cls-2, .cls-3, .cls-4, .cls-5 {
        stroke-width: 0px;
      }

      .cls-2 {
        fill: #f4da8f;
      }

      .cls-3 {
        fill: #829d19;
      }

      .cls-4 {
        fill: #a4c61e;
      }

      .cls-5 {
        fill: #d0d600;
      }

      .cls-6 {
        fill: none;
        stroke: #a4c61e;
        stroke-linecap: round;
        stroke-miterlimit: 10;
        stroke-width: 8px;
      }
    </style>
  </defs>
  <g>
    <path class="cls-1" d="m18.32,100.82c-6.21-1.8-11.19-4.14-14.95-7.03l6.61-14.65c3.6,2.64,7.89,4.76,12.85,6.37,4.96,1.6,9.93,2.4,14.89,2.4,5.52,0,9.61-.82,12.25-2.46,2.64-1.64,3.96-3.82,3.96-6.55,0-2-.78-3.66-2.34-4.98-1.56-1.32-3.56-2.38-6-3.18-2.44-.8-5.75-1.68-9.91-2.64-6.41-1.52-11.65-3.04-15.73-4.56-4.08-1.52-7.59-3.96-10.51-7.33-2.92-3.36-4.38-7.85-4.38-13.45,0-4.88,1.32-9.31,3.96-13.27s6.62-7.1,11.95-9.43c5.32-2.32,11.83-3.48,19.52-3.48,5.36,0,10.61.64,15.73,1.92,5.12,1.28,9.61,3.12,13.45,5.52l-6,14.77c-7.77-4.4-15.53-6.61-23.3-6.61-5.45,0-9.47.88-12.07,2.64-2.6,1.76-3.9,4.08-3.9,6.97s1.5,5.03,4.5,6.43c3,1.4,7.58,2.78,13.75,4.14,6.4,1.52,11.65,3.04,15.73,4.56,4.08,1.52,7.59,3.92,10.51,7.21,2.92,3.28,4.38,7.73,4.38,13.33,0,4.8-1.34,9.19-4.02,13.15-2.68,3.96-6.71,7.11-12.07,9.43-5.37,2.32-11.89,3.48-19.58,3.48-6.65,0-13.07-.9-19.28-2.7Z"/>
    <path class="cls-1" d="m151.68,86.47v15.61h-65.09V18.01h63.53v15.61h-44.2v18.25h39.03v15.13h-39.03v19.46h45.76Z"/>
    <path class="cls-1" d="m186.63,33.63v22.22h38.91v15.61h-38.91v30.63h-19.46V18.01h63.53v15.61h-44.08Z"/>
    <path class="cls-1" d="m381.72,21.74c5.48,2.48,9.71,6,12.67,10.57,2.96,4.56,4.44,9.97,4.44,16.21s-1.48,11.55-4.44,16.15c-2.96,4.6-7.19,8.13-12.67,10.57-5.49,2.44-11.95,3.66-19.4,3.66h-16.93v23.18h-19.46V18.01h36.39c7.45,0,13.91,1.24,19.4,3.72Zm-7.15,37.53c3.04-2.52,4.56-6.1,4.56-10.75s-1.52-8.35-4.56-10.87c-3.04-2.52-7.49-3.78-13.33-3.78h-15.85v29.18h15.85c5.84,0,10.29-1.26,13.33-3.78Z"/>
  </g>
  <polygon class="cls-5" points="278.72 28.08 278.72 44.68 262.04 54.28 258.56 52.28 247.64 46 278.72 28.08"/>
  <polygon class="cls-5" points="309.8 46 298.92 52.28 295.44 54.28 278.72 44.68 278.72 28.08 309.8 46"/>
  <polygon class="cls-3" points="309.8 81.88 278.72 99.8 278.72 83.2 295.44 73.6 298.92 75.6 309.8 81.88"/>
  <polygon class="cls-3" points="278.72 83.2 278.72 99.8 247.64 81.88 258.56 75.6 262.04 73.6 278.72 83.2"/>
  <polygon class="cls-4" points="262.04 54.28 262.04 73.6 247.64 81.88 247.64 46 262.04 54.28"/>
  <polygon class="cls-4" points="309.8 46 309.8 81.88 298.92 75.6 295.44 73.6 295.44 54.28 298.92 52.28 309.8 46"/>
  <line class="cls-6" x1="6.47" y1="132.63" x2="380.67" y2="132.63"/>
  <path class="cls-5" d="m432.11,92.38c-2.03,0-3.94-1.09-4.98-2.84l-.95-1.63c-1.12-1.88-1.04-4.28.2-6.14.5-.75,1.1-1.34,1.8-1.75l28.62-17.03c.87-.51,1.86-.79,2.88-.79,2.05,0,3.96,1.08,4.99,2.82l.95,1.64c1.63,2.76.73,6.31-2,7.93l-28.61,17.02c-.77.45-1.6.7-2.45.74l-.46.02Z"/>
  <path class="cls-4" d="m442.95,110.95c-2.1,0-3.98-1.06-5.04-2.84l-.95-1.63c-1.13-1.9-1.06-4.31.18-6.17.47-.71,1.08-1.28,1.82-1.71l49.36-29.1c.86-.5,1.86-.77,2.87-.77,2.07,0,3.99,1.08,5.03,2.83l.95,1.64c.8,1.35,1.02,2.91.62,4.41-.39,1.48-1.32,2.72-2.63,3.48l-49.36,29.1c-.78.45-1.61.71-2.46.75h-.41Z"/>
  <path class="cls-3" d="m453.64,129.5c-2.02,0-3.92-1.08-4.95-2.81l-.95-1.64c-1.13-1.9-1.05-4.31.18-6.17.5-.75,1.1-1.34,1.8-1.75l39-23.04c.87-.5,1.87-.77,2.89-.77,2.05,0,3.97,1.09,5.01,2.84l.96,1.64c1.62,2.74.71,6.28-2.03,7.89l-38.98,23.04c-.78.45-1.61.71-2.46.75l-.47.02Z"/>
  <path class="cls-2" d="m414.41,132.55c-.04-3.55-.99-7.02-2.81-10.15s-4.36-5.68-7.42-7.47l13.91-24.19c.18.47.4.93.66,1.37l1.01,1.75c1.75,2.93,4.84,4.81,8.15,5.05l1.27,2.18c-1.48,3.06-1.38,6.63.35,9.6l1.02,1.75c1.76,2.95,4.79,4.79,8.15,5.04l1.27,2.19c-1.48,3.06-1.38,6.63.35,9.6l1.02,1.75c.32.54.69,1.04,1.09,1.5l-28,.04Z"/>
  <path class="cls-4" d="m401.92,118.86c2.37,1.4,4.34,3.38,5.76,5.82s2.16,5.13,2.2,7.89l-15.83.02,7.88-13.73Z"/>
</svg>