<?xml version="1.0" encoding="UTF-8"?>
<svg id="Calque_2" data-name="Calque 2" xmlns="http://www.w3.org/2000/svg" viewBox="0 0 498.38 136.63">
  <defs>
    <style>
      .cls-1 {
        fill: #1d1d1b;
        font-size: 120.1px;
      }

      .cls-2 {
        fill: #f4da8f;
      }

      .cls-2, .cls-3, .cls-4, .cls-5 {
        stroke-width: 0px;
      }

      .cls-6 {
        font-family: Montserrat-Bold, Montserrat;
        font-weight: 700;
      }

      .cls-3 {
        fill: #829d19;
      }

      .cls-4, .cls-7 {
        fill: #a4c61e;
      }

      .cls-5 {
        fill: #d0d600;
      }

      .cls-8 {
        fill: none;
        stroke: #a4c61e;
        stroke-linecap: round;
        stroke-miterlimit: 10;
        stroke-width: 8px;
      }

      .cls-7 {
        font-size: 88px;
        letter-spacing: -.05em;
      }
    </style>
  </defs>
  <text class="cls-6" transform="translate(0 102.08)"><tspan class="cls-1" x="0" y="0">SEF</tspan><tspan class="cls-7" x="233.95" y="0" xml:space="preserve">    </tspan><tspan class="cls-1" x="315.96" y="0">P</tspan></text>
  <polygon class="cls-5" points="278.72 28.08 278.72 44.68 262.04 54.28 258.56 52.28 247.64 46 278.72 28.08"/>
  <polygon class="cls-5" points="309.8 46 298.92 52.28 295.44 54.28 278.72 44.68 278.72 28.08 309.8 46"/>
  <polygon class="cls-3" points="309.8 81.88 278.72 99.8 278.72 83.2 295.44 73.6 298.92 75.6 309.8 81.88"/>
  <polygon class="cls-3" points="278.72 83.2 278.72 99.8 247.64 81.88 258.56 75.6 262.04 73.6 278.72 83.2"/>
  <polygon class="cls-4" points="262.04 54.28 262.04 73.6 247.64 81.88 247.64 46 262.04 54.28"/>
  <polygon class="cls-4" points="309.8 46 309.8 81.88 298.92 75.6 295.44 73.6 295.44 54.28 298.92 52.28 309.8 46"/>
  <line class="cls-8" x1="6.47" y1="132.63" x2="380.67" y2="132.63"/>
  <path class="cls-5" d="m432.11,92.38c-2.03,0-3.94-1.09-4.98-2.84l-.95-1.63c-1.12-1.88-1.04-4.28.2-6.14.5-.75,1.1-1.34,1.8-1.75l28.62-17.03c.87-.51,1.86-.79,2.88-.79,2.05,0,3.96,1.08,4.99,2.82l.95,1.64c1.63,2.76.73,6.31-2,7.93l-28.61,17.02c-.77.45-1.6.7-2.45.74l-.46.02Z"/>
  <path class="cls-4" d="m442.95,110.95c-2.1,0-3.98-1.06-5.04-2.84l-.95-1.63c-1.13-1.9-1.06-4.31.18-6.17.47-.71,1.08-1.28,1.82-1.71l49.36-29.1c.86-.5,1.86-.77,2.87-.77,2.07,0,3.99,1.08,5.03,2.83l.95,1.64c.8,1.35,1.02,2.91.62,4.41-.39,1.48-1.32,2.72-2.63,3.48l-49.36,29.1c-.78.45-1.61.71-2.46.75h-.41Z"/>
  <path class="cls-3" d="m453.64,129.5c-2.02,0-3.92-1.08-4.95-2.81l-.95-1.64c-1.13-1.9-1.05-4.31.18-6.17.5-.75,1.1-1.34,1.8-1.75l39-23.04c.87-.5,1.87-.77,2.89-.77,2.05,0,3.97,1.09,5.01,2.84l.96,1.64c1.62,2.74.71,6.28-2.03,7.89l-38.98,23.04c-.78.45-1.61.71-2.46.75l-.47.02Z"/>
  <path class="cls-2" d="m414.41,132.55c-.04-3.55-.99-7.02-2.81-10.15s-4.36-5.68-7.42-7.47l13.91-24.19c.18.47.4.93.66,1.37l1.01,1.75c1.75,2.93,4.84,4.81,8.15,5.05l1.27,2.18c-1.48,3.06-1.38,6.63.35,9.6l1.02,1.75c1.76,2.95,4.79,4.79,8.15,5.04l1.27,2.19c-1.48,3.06-1.38,6.63.35,9.6l1.02,1.75c.32.54.69,1.04,1.09,1.5l-28,.04Z"/>
  <path class="cls-4" d="m401.92,118.86c2.37,1.4,4.34,3.38,5.76,5.82,1.41,2.44,2.16,5.13,2.2,7.89l-15.83.02,7.88-13.73Z"/>
</svg>